<svg id="Layer_1" data-name="Layer 1" xmlns="http://www.w3.org/2000/svg" xmlns:xlink="http://www.w3.org/1999/xlink" viewBox="0 0 3000 3000"><defs><style>.cls-1{fill:url(#linear-gradient);}.cls-2{fill:url(#linear-gradient-2);}</style><linearGradient id="linear-gradient" x1="760.04" y1="970.54" x2="1993.5" y2="2204" gradientUnits="userSpaceOnUse"><stop offset="0" stop-color="#ff7e5f"/><stop offset="1" stop-color="#fd3a84"/></linearGradient><linearGradient id="linear-gradient-2" x1="969.67" y1="760.91" x2="2203.13" y2="1994.37" xlink:href="#linear-gradient"/></defs><path class="cls-1" d="M744,2218.91a368.89,368.89,0,0,1-81.57-110c-26-53.31-38.5-109.72-38.51-169,0-295.5-1.58-591,.49-886.51,1-136.48,63.56-242.54,177.68-317.2,65.29-42.71,137.71-62.2,215.82-62.11q334.63.38,669.25-.1h9.28v521.71l2.12,1,276.59-275.16,1.46.8c-2.91,13.38-5.92,26.73-8.71,40.13-11.66,56-23,112.08-41.92,166.17-16.81,48-40,92.8-73.41,131.73-46,53.58-104.9,85.26-172.74,101.78-48.91,11.9-98.8,14.46-148.87,15.86-55.78,1.57-111.8,1.07-167.26,6.3-210.55,19.85-369.38,120.77-472.27,307-33.82,61.24-54.89,127.2-70.74,194.84-25.71,109.68-50.27,219.63-75.33,329.46A27.73,27.73,0,0,1,744,2218.91Z"/><path class="cls-2" d="M1023,2080.19c15.88-77.29,29.65-155.15,59.25-228.9,19.53-48.68,45.76-93.09,83.42-130.27,42.87-42.31,94.53-68,152.35-83,52.39-13.55,105.77-16.12,159.47-16.81,47.79-.62,95.65-.7,143.35-3.4,150.15-8.51,282.12-60.14,388.84-168.8,51.29-52.23,89.66-113.21,119.32-180,28.21-63.56,44-130.7,59.57-198l65.82-284.09c.3-1.27.7-2.51,1.48-5.29,9,8.9,17.64,16.54,25.15,25.2,63.31,72.92,95,158,95.13,254.34q.51,345.38,0,690.76c0,67.72,1.57,135.49-.61,203.15-3.1,96.39-38.92,180.3-105.88,249.81-78.72,81.72-176,120.75-289.09,120.86q-300.6.29-601.2.27h-22.86V1752.36q-165.68,166.48-329.66,331.28Z"/></svg>